<svg width="24" height="24" viewBox="0 0 24 24" fill="none" xmlns="http://www.w3.org/2000/svg">
<path fill-rule="evenodd" clip-rule="evenodd" d="M14.6898 2.10997C14.2198 1.98997 13.7398 1.98997 13.1098 1.98997H9.74982C8.93982 1.97997 8.27982 1.97997 7.72982 2.02997C7.15982 2.06997 6.64982 2.16997 6.15982 2.41997C5.39982 2.79997 4.78982 3.40997 4.40982 4.15997C4.15982 4.63997 4.05982 5.15997 4.00982 5.71997C3.95982 6.25997 3.95982 6.91997 3.95982 7.72997V16.21C3.94982 17.01 3.94982 17.67 3.99982 18.22C4.03982 18.78 4.13982 19.29 4.38982 19.78C4.76982 20.53 5.37982 21.14 6.12982 21.52C6.60982 21.76 7.12982 21.86 7.68982 21.91C8.22982 21.95 8.88982 21.95 9.69982 21.95H14.1798C14.9798 21.95 15.6398 21.95 16.1898 21.9C16.7498 21.85 17.2598 21.75 17.7498 21.5C18.4998 21.11 19.1098 20.5 19.4898 19.75C19.7298 19.26 19.8298 18.74 19.8798 18.18C19.9198 17.63 19.9198 16.97 19.9198 16.16V8.79997C19.9198 8.15997 19.9198 7.67997 19.7998 7.21997C19.6998 6.80997 19.5398 6.41997 19.3198 6.05997C19.0698 5.64997 18.7298 5.30997 18.2798 4.85997L16.9398 3.51997C16.4898 3.06997 16.1498 2.72997 15.7398 2.47997C15.3798 2.25997 14.9898 2.08997 14.5798 1.99997L14.6898 2.10997ZM12.9898 3.98997H9.78982C8.92982 3.98997 8.34982 3.98997 7.89982 4.01997C7.45982 4.04997 7.22982 4.11997 7.07982 4.19997C6.69982 4.38997 6.38982 4.68997 6.19982 5.06997C6.11982 5.21997 6.04982 5.44997 6.00982 5.87997C5.96982 6.32997 5.96982 6.90997 5.96982 7.75997V16.16C5.96982 17.01 5.96982 17.59 5.99982 18.04C6.02982 18.47 6.09982 18.7 6.17982 18.85C6.36982 19.22 6.66982 19.53 7.04982 19.72C7.19982 19.79 7.42982 19.86 7.85982 19.9C8.30982 19.93 8.88982 19.93 9.73982 19.93H14.1398C14.9898 19.93 15.5698 19.92 16.0198 19.89C16.4498 19.85 16.6798 19.78 16.8298 19.7C17.1998 19.5 17.5098 19.2 17.6998 18.82C17.7698 18.66 17.8398 18.43 17.8798 18C17.9098 17.54 17.9098 16.96 17.9098 16.11V8.89997H15.9098C14.2498 8.89997 12.9098 7.54997 12.9098 5.89997V3.89997L12.9898 3.98997ZM17.5398 6.97997C17.4098 6.82997 17.2198 6.63997 16.8598 6.27997L15.6698 5.08997C15.2998 4.71997 15.1098 4.52997 14.9698 4.40997V5.95997C14.9698 6.50997 15.4098 6.95997 15.9698 6.95997H17.5198L17.5398 6.97997Z" fill="white"/>
<path d="M10 13C10 13.55 9.55 14 9 14C8.44 14 8 13.55 8 13C8 12.44 8.44 12 9 12C9.55 12 10 12.44 10 13Z" fill="white"/>
<path d="M13 12C12.44 12 12 12.44 12 13C12 13.55 12.44 14 13 14H15C15.55 14 16 13.55 16 13C16 12.44 15.55 12 15 12H13Z" fill="white"/>
<path d="M13 16C12.44 16 12 16.44 12 17C12 17.55 12.44 18 13 18H15C15.55 18 16 17.55 16 17C16 16.44 15.55 16 15 16H13Z" fill="white"/>
<path d="M9 18C9.55 18 10 17.55 10 17C10 16.44 9.55 16 9 16C8.44 16 8 16.44 8 17C8 17.55 8.44 18 9 18Z" fill="white"/>
</svg>
